<svg width="24" height="24" viewBox="0 0 24 24" fill="none" xmlns="http://www.w3.org/2000/svg">
<path fill-rule="evenodd" clip-rule="evenodd" d="M18.8302 5.51018C19.2207 5.9007 19.2207 6.53387 18.8302 6.92439L6.83015 18.9244C6.43963 19.3149 5.80646 19.3149 5.41594 18.9244C5.02542 18.5339 5.02542 17.9007 5.41594 17.5102L17.4159 5.51018C17.8065 5.11965 18.4396 5.11965 18.8302 5.51018Z" fill="#13BDCE"/>
<path fill-rule="evenodd" clip-rule="evenodd" d="M5.41594 5.51018C5.80646 5.11965 6.43963 5.11965 6.83015 5.51018L18.8302 17.5102C19.2207 17.9007 19.2207 18.5339 18.8302 18.9244C18.4396 19.3149 17.8065 19.3149 17.4159 18.9244L5.41594 6.92439C5.02542 6.53387 5.02542 5.9007 5.41594 5.51018Z" fill="#13BDCE"/>
</svg>
